HIERARCHY
ROOT newVegas:Hips
{
	OFFSET 0.000000 96.479958 0.000000
	CHANNELS 6 Xposition Yposition Zposition Xrotation Yrotation Zrotation
	JOINT newVegas:Pelvis
	{
		OFFSET 0.000000 0.000000 0.000000
		CHANNELS 3 Xrotation Yrotation Zrotation
		JOINT newVegas:LeftUpLeg
		{
			OFFSET 18.735201 -5.666702 -4.541200
			CHANNELS 3 Xrotation Yrotation Zrotation
			JOINT newVegas:LeftLeg
			{
				OFFSET -0.021200 -31.938179 0.493100
				CHANNELS 3 Xrotation Yrotation Zrotation
				JOINT newVegas:LeftFoot
				{
					OFFSET 0.021200 -31.938179 -4.336299
					CHANNELS 3 Xrotation Yrotation Zrotation
					JOINT newVegas:LeftToeBase
					{
						OFFSET 0.943001 -26.722000 15.023500
						CHANNELS 3 Xrotation Yrotation Zrotation
						End Site
						{
							OFFSET 0.000000 30.670183 0.000000
						}
					}
				}
				JOINT newVegas:Left_PantLeg
				{
					OFFSET 0.663870 -9.044666 -1.108900
					CHANNELS 3 Xrotation Yrotation Zrotation
					End Site
					{
						OFFSET 1.415995 20.635357 0.000000
					}
				}
			}
		}
		JOINT newVegas:RightUpLeg
		{
			OFFSET -18.735201 -5.666702 -4.541200
			CHANNELS 3 Xrotation Yrotation Zrotation
			JOINT newVegas:RightLeg
			{
				OFFSET 0.018946 -31.938133 0.493100
				CHANNELS 3 Xrotation Yrotation Zrotation
				JOINT newVegas:RightFoot
				{
					OFFSET -0.018946 -31.938126 -4.336299
					CHANNELS 3 Xrotation Yrotation Zrotation
					JOINT newVegas:RightToeBase
					{
						OFFSET -0.943001 -26.722004 15.023500
						CHANNELS 3 Xrotation Yrotation Zrotation
						End Site
						{
							OFFSET 0.000000 30.670187 0.000000
						}
					}
				}
				JOINT newVegas:Right_PantLeg
				{
					OFFSET -0.661674 -9.044716 -1.108900
					CHANNELS 3 Xrotation Yrotation Zrotation
					End Site
					{
						OFFSET -1.415958 20.635269 0.000000
					}
				}
			}
		}
	}
	JOINT newVegas:Spine
	{
		OFFSET 0.000000 10.199997 -0.299500
		CHANNELS 3 Xrotation Yrotation Zrotation
		JOINT newVegas:Spine1
		{
			OFFSET 0.000000 11.900002 -1.516600
			CHANNELS 3 Xrotation Yrotation Zrotation
			JOINT newVegas:Spine2
			{
				OFFSET 0.000000 13.600006 -2.842500
				CHANNELS 3 Xrotation Yrotation Zrotation
				JOINT newVegas:Neck
				{
					OFFSET 0.000000 9.624100 -2.890100
					CHANNELS 3 Xrotation Yrotation Zrotation
					JOINT newVegas:Head
					{
						OFFSET 0.000000 14.068802 -1.351900
						CHANNELS 3 Xrotation Yrotation Zrotation
						JOINT newVegas:Hair_Back
						{
							OFFSET 0.000000 3.231903 -17.524799
							CHANNELS 3 Xrotation Yrotation Zrotation
							End Site
							{
								OFFSET 0.000000 19.849884 0.000000
							}
						}
						JOINT newVegas:Hair_Front
						{
							OFFSET 0.000000 31.260406 4.573800
							CHANNELS 3 Xrotation Yrotation Zrotation
							JOINT newVegas:Hair_Front1
							{
								OFFSET 0.000000 2.284103 11.993300
								CHANNELS 3 Xrotation Yrotation Zrotation
								JOINT newVegas:Hair_Front2
								{
									OFFSET 0.000000 2.284103 11.993300
									CHANNELS 3 Xrotation Yrotation Zrotation
									End Site
									{
										OFFSET 0.000000 12.208862 0.000000
									}
								}
							}
						}
						JOINT newVegas:Jowel
						{
							OFFSET 0.000000 -7.458206 6.864100
							CHANNELS 3 Xrotation Yrotation Zrotation
							End Site
							{
								OFFSET 0.000000 19.849884 0.000000
							}
						}
					}
				}
				JOINT newVegas:LeftShoulder
				{
					OFFSET 15.263000 10.923401 -0.547700
					CHANNELS 3 Xrotation Yrotation Zrotation
					JOINT newVegas:LeftArm
					{
						OFFSET 25.438599 -2.830597 -13.032500
						CHANNELS 3 Xrotation Yrotation Zrotation
						JOINT newVegas:LeftForeArm
						{
							OFFSET 29.960503 0.000000 0.000000
							CHANNELS 3 Xrotation Yrotation Zrotation
							JOINT newVegas:LeftHand
							{
								OFFSET 27.849251 0.000000 0.000000
								CHANNELS 3 Xrotation Yrotation Zrotation
								JOINT newVegas:LeftHandThumb1
								{
									OFFSET 4.487587 -3.305161 6.305391
									CHANNELS 3 Xrotation Yrotation Zrotation
									JOINT newVegas:LeftHandThumb2
									{
										OFFSET 5.480453 -3.164139 3.164143
										CHANNELS 3 Xrotation Yrotation Zrotation
										JOINT newVegas:LeftHandThumb3
										{
											OFFSET 5.159721 -2.978973 2.978967
											CHANNELS 3 Xrotation Yrotation Zrotation
											End Site
											{
												OFFSET 2.494507 5.926697 1.738678
											}
										}
									}
								}
								JOINT newVegas:LeftHandIndex1
								{
									OFFSET 18.578728 -0.527832 5.208049
									CHANNELS 3 Xrotation Yrotation Zrotation
									JOINT newVegas:LeftHandIndex2
									{
										OFFSET 3.192009 0.000000 0.000000
										CHANNELS 3 Xrotation Yrotation Zrotation
										JOINT newVegas:LeftHandIndex3
										{
											OFFSET 3.835129 0.000000 0.000000
											CHANNELS 3 Xrotation Yrotation Zrotation
											End Site
											{
												OFFSET -0.034599 3.816971 0.371180
											}
										}
									}
								}
								JOINT newVegas:LeftHandMiddle1
								{
									OFFSET 18.476105 0.000000 0.000000
									CHANNELS 3 Xrotation Yrotation Zrotation
									JOINT newVegas:LeftHandMiddle2
									{
										OFFSET 3.324875 0.000000 0.000000
										CHANNELS 3 Xrotation Yrotation Zrotation
										JOINT newVegas:LeftHandMiddle3
										{
											OFFSET 4.596550 0.000000 0.000000
											CHANNELS 3 Xrotation Yrotation Zrotation
											End Site
											{
												OFFSET 0.057701 4.578827 0.399218
											}
										}
									}
								}
								JOINT newVegas:LeftHandRing1
								{
									OFFSET 17.732719 0.121887 -4.201567
									CHANNELS 3 Xrotation Yrotation Zrotation
									JOINT newVegas:LeftHandRing2
									{
										OFFSET 2.733170 0.000000 0.000000
										CHANNELS 3 Xrotation Yrotation Zrotation
										JOINT newVegas:LeftHandRing3
										{
											OFFSET 3.178268 0.000000 0.000000
											CHANNELS 3 Xrotation Yrotation Zrotation
											End Site
											{
												OFFSET 0.119102 3.170624 0.185394
											}
										}
									}
								}
								JOINT newVegas:LeftHandPinky1
								{
									OFFSET 15.989624 -0.606689 -7.535461
									CHANNELS 3 Xrotation Yrotation Zrotation
									JOINT newVegas:LeftHandPinky2
									{
										OFFSET 2.538986 0.000000 0.000000
										CHANNELS 3 Xrotation Yrotation Zrotation
										JOINT newVegas:LeftHandPinky3
										{
											OFFSET 2.593102 0.000000 0.000000
											CHANNELS 3 Xrotation Yrotation Zrotation
											End Site
											{
												OFFSET -0.150902 2.584198 0.152708
											}
										}
									}
								}
							}
							JOINT newVegas:Left_Sleeve
							{
								OFFSET 0.267448 -0.649796 0.577675
								CHANNELS 3 Xrotation Yrotation Zrotation
								End Site
								{
									OFFSET 0.000000 15.991241 0.000000
								}
							}
							JOINT newVegas:Left_CapeC
							{
								OFFSET 15.715958 -8.608795 -6.935905
								CHANNELS 3 Xrotation Yrotation Zrotation
								JOINT newVegas:Left_CapeC1
								{
									OFFSET 0.000000 -8.688499 0.000000
									CHANNELS 3 Xrotation Yrotation Zrotation
									End Site
									{
										OFFSET 0.000000 8.688499 0.000000
									}
								}
							}
						}
						JOINT newVegas:Left_CapeB
						{
							OFFSET 26.118385 -8.608795 -7.079235
							CHANNELS 3 Xrotation Yrotation Zrotation
							JOINT newVegas:Left_CapeB1
							{
								OFFSET 0.000000 -8.688499 0.000000
								CHANNELS 3 Xrotation Yrotation Zrotation
								End Site
								{
									OFFSET 0.000000 8.688499 0.000000
								}
							}
						}
						JOINT newVegas:Left_CapeA
						{
							OFFSET 5.115639 -8.608795 -10.395809
							CHANNELS 3 Xrotation Yrotation Zrotation
							JOINT newVegas:Left_CapeA1
							{
								OFFSET 0.000000 -8.688499 0.000000
								CHANNELS 3 Xrotation Yrotation Zrotation
								End Site
								{
									OFFSET 0.000000 8.688499 0.000000
								}
							}
						}
					}
				}
				JOINT newVegas:RightShoulder
				{
					OFFSET -15.263000 10.923401 -0.547700
					CHANNELS 3 Xrotation Yrotation Zrotation
					JOINT newVegas:RightArm
					{
						OFFSET -25.438599 -2.830597 -13.032500
						CHANNELS 3 Xrotation Yrotation Zrotation
						JOINT newVegas:RightForeArm
						{
							OFFSET -29.960503 0.000000 0.000000
							CHANNELS 3 Xrotation Yrotation Zrotation
							JOINT newVegas:RightHand
							{
								OFFSET -27.849251 0.000000 0.000000
								CHANNELS 3 Xrotation Yrotation Zrotation
								JOINT newVegas:RightHandThumb1
								{
									OFFSET -4.487587 -3.305161 6.305391
									CHANNELS 3 Xrotation Yrotation Zrotation
									JOINT newVegas:RightHandThumb2
									{
										OFFSET -5.480453 -3.164139 3.164143
										CHANNELS 3 Xrotation Yrotation Zrotation
										JOINT newVegas:RightHandThumb3
										{
											OFFSET -5.159721 -2.978973 2.978967
											CHANNELS 3 Xrotation Yrotation Zrotation
											End Site
											{
												OFFSET -2.494507 5.926697 1.738678
											}
										}
									}
								}
								JOINT newVegas:RightHandIndex1
								{
									OFFSET -18.578728 -0.527832 5.208049
									CHANNELS 3 Xrotation Yrotation Zrotation
									JOINT newVegas:RightHandIndex2
									{
										OFFSET -3.192009 0.000000 0.000000
										CHANNELS 3 Xrotation Yrotation Zrotation
										JOINT newVegas:RightHandIndex3
										{
											OFFSET -3.835129 0.000000 0.000000
											CHANNELS 3 Xrotation Yrotation Zrotation
											End Site
											{
												OFFSET 0.034599 3.816971 0.371180
											}
										}
									}
								}
								JOINT newVegas:RightHandMiddle1
								{
									OFFSET -18.476105 0.000000 0.000000
									CHANNELS 3 Xrotation Yrotation Zrotation
									JOINT newVegas:RightHandMiddle2
									{
										OFFSET -3.324875 0.000000 0.000000
										CHANNELS 3 Xrotation Yrotation Zrotation
										JOINT newVegas:RightHandMiddle3
										{
											OFFSET -4.596550 0.000000 0.000000
											CHANNELS 3 Xrotation Yrotation Zrotation
											End Site
											{
												OFFSET -0.057701 4.578827 0.399218
											}
										}
									}
								}
								JOINT newVegas:RightHandRing1
								{
									OFFSET -17.732719 0.121887 -4.201567
									CHANNELS 3 Xrotation Yrotation Zrotation
									JOINT newVegas:RightHandRing2
									{
										OFFSET -2.733170 0.000000 0.000000
										CHANNELS 3 Xrotation Yrotation Zrotation
										JOINT newVegas:RightHandRing3
										{
											OFFSET -3.178268 0.000000 0.000000
											CHANNELS 3 Xrotation Yrotation Zrotation
											End Site
											{
												OFFSET -0.119102 3.170624 0.185394
											}
										}
									}
								}
								JOINT newVegas:RightHandPinky1
								{
									OFFSET -15.989624 -0.606689 -7.535461
									CHANNELS 3 Xrotation Yrotation Zrotation
									JOINT newVegas:RightHandPinky2
									{
										OFFSET -2.538986 0.000000 0.000000
										CHANNELS 3 Xrotation Yrotation Zrotation
										JOINT newVegas:RightHandPinky3
										{
											OFFSET -2.593102 0.000000 0.000000
											CHANNELS 3 Xrotation Yrotation Zrotation
											End Site
											{
												OFFSET 0.150902 2.584198 0.152708
											}
										}
									}
								}
							}
							JOINT newVegas:Right_CapeC
							{
								OFFSET -15.715958 -8.608795 -6.935905
								CHANNELS 3 Xrotation Yrotation Zrotation
								JOINT newVegas:Right_CapeC1
								{
									OFFSET 0.000000 -8.688499 0.000000
									CHANNELS 3 Xrotation Yrotation Zrotation
									End Site
									{
										OFFSET 0.000000 8.688499 0.000000
									}
								}
							}
							JOINT newVegas:Right_Sleeve
							{
								OFFSET -0.267448 -0.649994 0.577675
								CHANNELS 3 Xrotation Yrotation Zrotation
								End Site
								{
									OFFSET 0.000000 15.991302 0.000000
								}
							}
						}
						JOINT newVegas:Right_CapeA
						{
							OFFSET -5.115540 -8.608795 -10.395824
							CHANNELS 3 Xrotation Yrotation Zrotation
							JOINT newVegas:Right_CapeA1
							{
								OFFSET 0.000000 -8.688499 0.000000
								CHANNELS 3 Xrotation Yrotation Zrotation
								End Site
								{
									OFFSET 0.000000 8.688499 0.000000
								}
							}
						}
						JOINT newVegas:Right_CapeB
						{
							OFFSET -26.118187 -8.608795 -7.079266
							CHANNELS 3 Xrotation Yrotation Zrotation
							JOINT newVegas:Right_CapeB1
							{
								OFFSET 0.000000 -8.688499 0.000000
								CHANNELS 3 Xrotation Yrotation Zrotation
								End Site
								{
									OFFSET 0.000000 8.688499 0.000000
								}
							}
						}
					}
				}
				JOINT newVegas:Left_Collar
				{
					OFFSET 18.625099 8.655502 8.828100
					CHANNELS 3 Xrotation Yrotation Zrotation
					JOINT newVegas:Left_Collar1
					{
						OFFSET 14.783401 10.540405 -1.259500
						CHANNELS 3 Xrotation Yrotation Zrotation
						End Site
						{
							OFFSET 0.000000 18.199875 0.000000
						}
					}
				}
				JOINT newVegas:Collar_Back
				{
					OFFSET 0.000000 15.630707 -20.132601
					CHANNELS 3 Xrotation Yrotation Zrotation
					End Site
					{
						OFFSET 0.000000 22.523010 0.000000
					}
				}
				JOINT newVegas:Left_Peck
				{
					OFFSET 17.239599 -5.132599 25.482599
					CHANNELS 3 Xrotation Yrotation Zrotation
					End Site
					{
						OFFSET 0.000000 22.523010 0.000000
					}
				}
				JOINT newVegas:Right_Peck
				{
					OFFSET -17.239599 -5.132202 25.482599
					CHANNELS 3 Xrotation Yrotation Zrotation
					End Site
					{
						OFFSET 0.000000 22.523010 0.000000
					}
				}
				JOINT newVegas:Right_Collar
				{
					OFFSET -18.625099 8.655792 8.828100
					CHANNELS 3 Xrotation Yrotation Zrotation
					JOINT newVegas:Right_Collar1
					{
						OFFSET -14.783401 10.539993 -1.259500
						CHANNELS 3 Xrotation Yrotation Zrotation
						End Site
						{
							OFFSET 0.000000 18.199631 0.000000
						}
					}
				}
			}
		}
		JOINT newVegas:Belly
		{
			OFFSET 0.000000 -6.540398 9.014299
			CHANNELS 3 Xrotation Yrotation Zrotation
			End Site
			{
				OFFSET 0.000000 11.566666 0.000000
			}
		}
	}
	JOINT newVegas:ElvisFacialAnim_Joint
	{
		OFFSET 1.000000 -95.330101 -8.825800
		CHANNELS 3 Xrotation Yrotation Zrotation
		End Site
		{
			OFFSET 0.000000 35.315800 0.000000
		}
	}
}
MOTION
Frames: 4
Frame Time: 0.033333
-0.327023 93.687920 4.491738 3.816361 -3.712863 -0.138245 0.000001 0.000000 -0.000000 -11.203030 11.486182 13.468955 14.713180 3.831856 2.036097 -6.147875 2.050873 -13.991538 -0.000000 -0.000000 0.000000 -0.000000 0.000001 -0.000000 -14.379030 -7.212957 -11.741455 13.782433 2.089616 -2.795406 -3.149672 -1.426516 13.279295 -0.000000 0.000000 0.000000 0.000000 -0.000002 0.000000 0.169954 0.331045 -0.031448 0.511368 0.555630 -0.149995 0.508118 0.557001 -0.156049 -2.403582 0.301251 0.411794 -2.403582 0.301253 0.411794 0.000000 0.000000 -0.000000 -2.403585 0.301251 0.411794 -2.403512 0.301252 0.411794 -0.000000 0.000000 -0.000000 0.000000 0.000000 -0.000000 1.604994 -11.385831 -9.553346 4.329745 -15.662797 -64.423055 0.000001 -12.874970 -0.000010 1.693021 -1.937939 -8.457189 0.699751 -6.020120 19.223935 19.074640 26.512453 -1.026337 0.000004 -0.000002 -0.000003 0.460226 4.491397 -23.662357 0.883090 3.094856 -31.844179 -0.000002 0.000002 -0.000003 2.486449 8.732131 -25.419679 1.496294 3.911564 -41.853979 -0.000002 -0.000002 0.000000 3.090054 8.505061 -34.940365 1.098180 3.416394 -35.630256 -0.000000 0.000001 -0.000001 3.603264 12.761705 -45.581329 0.673744 2.729582 -27.725807 -0.000000 -0.000003 -0.000001 0.000000 -0.000001 -0.000000 0.000000 -0.000001 -0.000000 -0.000001 -0.000001 -0.000000 -0.000003 0.000000 -0.000002 -0.000003 -0.000000 -0.000002 -0.000003 0.000000 -0.000002 -0.000004 0.000000 -0.000002 2.087502 14.855919 10.815231 -4.515511 3.403577 66.314594 -0.000005 7.533711 0.000019 10.827173 0.054045 8.057249 -13.495566 -11.552051 -5.371128 13.666546 -20.582688 -6.820340 0.000003 0.000000 0.000001 0.246067 -3.262788 18.902289 0.589422 -2.269655 29.112650 -0.000003 0.000001 0.000002 -0.702530 -1.215796 21.259792 0.924236 -2.786647 36.691862 0.000001 0.000000 -0.000002 -0.941520 -2.664819 38.529247 0.358961 -1.794606 22.620043 0.000000 -0.000001 -0.000003 -2.260371 -1.124661 39.408149 0.612404 -2.310392 29.687605 -0.000000 0.000002 -0.000002 0.000001 0.000000 0.000000 0.000001 0.000000 0.000000 0.000001 0.000000 0.000000 -0.000001 0.000000 -0.000000 -0.000000 0.000000 0.000000 -0.000001 0.000000 -0.000000 -0.000000 -0.000000 0.000000 0.000001 0.000000 -0.000000 0.000001 0.000000 -0.000000 0.000001 0.000000 -0.000000 0.000001 0.000000 -0.000000 0.000001 0.000000 -0.000000 0.000001 0.000000 -0.000000 0.000001 0.000000 -0.000000 0.000000 -0.000000 -0.000000 0.000001 0.000000 -0.000000 
-0.373921 93.653862 4.173937 3.932825 -3.829222 -0.107682 0.000000 -0.000000 0.000000 -12.017420 11.254291 13.441913 15.638485 4.067399 2.061862 -6.345157 1.997874 -13.625051 0.000000 0.000002 -0.000000 -0.000000 0.000000 0.000003 -15.014858 -6.940039 -11.640251 14.209958 2.023125 -2.907101 -3.042886 -1.403875 13.252337 0.000000 -0.000001 -0.000000 -0.000000 -0.000001 -0.000001 0.304532 0.337352 -0.050759 0.739135 0.564630 -0.173897 0.735916 0.566561 -0.179759 -2.583757 0.299153 0.375628 -2.583760 0.299153 0.375627 -0.000000 -0.000000 0.000000 -2.583687 0.299154 0.375627 -2.583771 0.299145 0.375630 0.000000 0.000000 -0.000000 -0.000000 -0.000000 -0.000000 1.559833 -11.722504 -9.803820 2.376115 -16.026183 -63.151403 -0.000000 -13.236500 -0.000024 0.856559 -2.649672 -6.198347 0.699755 -6.020118 19.223929 19.485497 27.133743 -1.459074 -0.000001 0.000001 -0.000004 0.422659 4.414395 -24.217885 0.892236 3.109528 -32.013404 0.000001 0.000000 -0.000001 2.570849 8.777952 -26.166706 1.502853 3.918859 -41.949980 0.000001 0.000001 -0.000004 3.068557 8.463753 -35.048880 1.094596 3.411379 -35.569976 0.000001 -0.000002 -0.000003 3.576449 12.700710 -45.745277 0.674057 2.730147 -27.732183 0.000002 -0.000005 -0.000001 0.000002 -0.000001 0.000002 0.000002 -0.000001 0.000002 0.000001 -0.000001 0.000002 0.000001 0.000001 0.000000 0.000001 0.000001 -0.000001 0.000001 0.000001 0.000000 -0.000001 0.000002 -0.000000 2.022373 15.234279 10.937719 -5.708971 5.151560 64.792165 -0.000003 7.770650 0.000030 11.353008 0.522367 6.874617 -13.495573 -11.552052 -5.371129 14.799434 -22.243428 -5.743268 -0.000000 -0.000003 0.000001 0.220881 -3.141892 19.544001 0.611381 -2.308608 29.662173 -0.000002 0.000001 -0.000001 -0.870771 -0.926221 22.177833 0.929674 -2.793916 36.803388 -0.000000 0.000003 0.000002 -1.267731 -2.378151 39.735025 0.359842 -1.796720 22.648294 -0.000001 -0.000003 -0.000002 -2.676240 -0.759292 40.312169 0.596859 -2.282946 29.299941 -0.000001 -0.000000 0.000001 -0.000000 0.000000 -0.000001 -0.000000 0.000000 -0.000001 -0.000000 0.000001 -0.000001 0.000001 0.000001 -0.000001 0.000002 0.000001 -0.000001 0.000001 0.000001 -0.000001 0.000002 0.000001 -0.000001 0.000000 0.000000 -0.000000 0.000000 0.000000 -0.000000 0.000000 0.000000 -0.000000 0.000000 0.000000 -0.000000 0.000000 0.000000 -0.000000 0.000000 0.000000 -0.000000 0.000000 0.000000 -0.000000 -0.000000 -0.000000 -0.000000 0.000000 -0.000000 0.000000 
-0.389300 93.547943 3.641074 4.148351 -3.919999 -0.118241 -0.000000 0.000000 -0.000000 -13.367398 10.904975 13.603374 17.034324 4.256593 2.006041 -6.575274 1.975420 -13.412215 0.000000 -0.000001 -0.000000 -0.000001 -0.000001 0.000002 -16.114513 -6.521208 -11.521680 15.017245 1.898764 -3.004314 -2.932177 -1.366605 13.220623 0.000000 -0.000000 -0.000000 0.000001 -0.000001 -0.000000 0.426789 0.361071 -0.077281 0.943639 0.605215 -0.170719 0.940393 0.607433 -0.176100 -2.765583 0.300606 0.331355 -2.765554 0.300605 0.331354 0.000000 0.000000 -0.000000 -2.765381 0.300609 0.331352 -2.765601 0.300603 0.331354 -0.000000 0.000000 -0.000000 0.000000 0.000000 -0.000000 1.539962 -11.882592 -9.893980 -0.353024 -17.272493 -61.461478 0.000000 -13.679020 0.000029 -0.225828 -3.251360 -4.455130 0.699751 -6.020118 19.223933 19.721850 27.515699 -1.726120 -0.000000 -0.000003 -0.000006 0.369731 4.307411 -24.687719 0.899389 3.120902 -32.144940 -0.000000 0.000001 -0.000002 2.619002 8.776856 -26.754268 1.508940 3.925598 -42.038971 -0.000002 -0.000003 0.000001 3.023585 8.396969 -35.084267 1.094620 3.411440 -35.570618 0.000001 -0.000006 0.000000 3.499864 12.626618 -45.640929 0.669664 2.721799 -27.639885 -0.000002 -0.000005 -0.000003 0.000003 -0.000001 0.000001 0.000003 -0.000001 0.000001 0.000002 -0.000001 0.000001 0.000002 -0.000001 -0.000000 0.000002 0.000000 -0.000001 0.000002 -0.000001 -0.000000 0.000000 0.000000 -0.000000 1.999525 15.447250 10.822288 -7.617980 7.841458 62.984822 -0.000003 8.026333 0.000021 11.882661 1.033168 5.810372 -13.495562 -11.552050 -5.371128 15.408143 -23.090216 -5.161122 0.000002 -0.000002 0.000003 0.216630 -3.131156 20.340570 0.629849 -2.340717 30.117439 -0.000000 0.000000 -0.000001 -0.993021 -0.750103 22.938396 0.933929 -2.799582 36.890661 0.000002 0.000001 0.000002 -1.516251 -2.184977 40.696531 0.361511 -1.800735 22.701677 0.000002 -0.000001 0.000002 -2.982825 -0.508904 40.987180 0.588520 -2.268013 29.089632 0.000000 0.000002 -0.000001 0.000002 0.000000 -0.000000 0.000000 -0.000000 -0.000001 0.000001 0.000000 0.000000 0.000001 0.000000 0.000001 0.000001 0.000001 0.000002 0.000001 0.000000 0.000001 0.000001 0.000001 0.000002 -0.000000 0.000000 0.000000 -0.000000 0.000000 0.000000 -0.000000 0.000000 0.000000 -0.000000 0.000000 0.000000 -0.000000 0.000000 0.000000 -0.000000 0.000000 0.000000 -0.000000 0.000000 0.000000 -0.000000 -0.000000 0.000000 -0.000000 0.000000 -0.000000 
-0.404779 93.248344 2.938840 4.606321 -4.044964 -0.146603 0.000000 0.000000 -0.000000 -15.839251 10.415998 14.055332 19.845743 4.280534 1.767537 -7.355201 1.986591 -13.084272 0.000000 -0.000001 -0.000000 -0.000000 -0.000001 -0.000000 -18.264590 -5.959579 -11.451542 17.070427 1.856970 -3.056185 -3.258009 -1.353074 13.132383 0.000000 -0.000001 -0.000000 0.000000 -0.000000 -0.000001 0.570829 0.385956 -0.101555 1.184295 0.648496 -0.162121 1.180986 0.651163 -0.167023 -2.969264 0.312177 0.277265 -2.969269 0.312177 0.277266 -0.000000 -0.000000 -0.000000 -2.969263 0.312177 0.277265 -2.969269 0.312177 0.277266 0.000000 -0.000000 -0.000000 -0.000000 -0.000000 -0.000000 1.549568 -11.939207 -9.743847 -3.759166 -19.408094 -59.375866 0.000004 -14.494286 0.000015 -1.860036 -3.678035 -3.162544 0.699757 -6.020118 19.223936 19.856922 27.784422 -1.908765 -0.000002 -0.000000 -0.000003 0.311056 4.192975 -25.136565 0.905917 3.131277 -32.264933 -0.000001 -0.000001 -0.000002 2.639573 8.737156 -27.255033 1.513975 3.931162 -42.112416 0.000001 0.000001 0.000002 2.951008 8.299073 -35.040547 1.095652 3.412844 -35.587659 -0.000001 -0.000001 -0.000001 3.372809 12.527469 -45.319302 0.661734 2.706624 -27.472418 -0.000003 0.000002 -0.000000 0.000002 -0.000002 0.000001 0.000002 -0.000002 0.000001 0.000001 -0.000001 0.000001 -0.000000 0.000001 -0.000000 -0.000000 0.000000 -0.000000 -0.000000 0.000001 -0.000000 -0.000002 0.000002 -0.000000 2.026437 15.507258 10.368157 -10.304829 11.625037 61.019230 0.000006 8.358445 -0.000010 11.634893 1.890405 4.988919 -13.495564 -11.552051 -5.371127 15.619435 -23.369187 -4.963541 -0.000000 -0.000002 -0.000001 0.213680 -3.128551 20.995909 0.636527 -2.352172 30.280705 0.000002 0.000001 -0.000004 -1.118483 -0.559059 23.562780 0.935524 -2.801715 36.923405 0.000000 -0.000001 -0.000001 -1.765657 -1.987699 41.485739 0.363975 -1.806595 22.779813 0.000000 -0.000003 -0.000001 -3.360624 -0.171940 41.556435 0.583843 -2.259588 28.971081 -0.000002 -0.000002 0.000000 0.000001 0.000001 0.000002 0.000001 0.000001 0.000001 0.000001 0.000001 0.000002 0.000001 0.000000 0.000001 0.000001 0.000001 0.000001 0.000001 0.000000 0.000001 0.000001 0.000001 0.000001 0.000001 0.000000 -0.000000 0.000001 0.000000 -0.000000 0.000001 0.000000 -0.000000 0.000001 0.000000 -0.000000 0.000001 0.000000 -0.000000 0.000001 0.000000 -0.000000 0.000001 0.000000 -0.000000 0.000000 0.000000 -0.000000 0.000000 0.000000 -0.000000 
